<?xml version="1.0" encoding="utf-8"?>
<!-- Generator: Adobe Illustrator 19.0.0, SVG Export Plug-In . SVG Version: 6.00 Build 0)  -->
<svg version="1.1" id="Capa_1" xmlns="http://www.w3.org/2000/svg" xmlns:xlink="http://www.w3.org/1999/xlink" x="0px" y="0px"
	 viewBox="0 0 1024 1024" style="enable-background:new 0 0 1024 1024;" xml:space="preserve">
<style type="text/css">
	.st0{fill:#FFFFFF;}
	.st1{fill:#25408F;}
	.st2{fill:#17BED0;}
	.st3{fill:#01ABE6;}
	.st4{fill:#7BAFDE;}
	.st5{fill:#FBFBFB;}
	.st6{fill:#FEFEFF;}
	.st7{fill:#FDFEFE;}
	.st8{fill:#FCFEFE;}
	.st9{fill:#FBFCFD;}
	.st10{fill:#FCFCFD;}
	.st11{fill:#274290;}
	.st12{fill:#26418F;}
	.st13{fill:#264190;}
	.st14{fill:#294491;}
	.st15{fill:#26408F;}
	.st16{fill:#284291;}
	.st17{fill:#294390;}
</style>
<path id="XMLID_331_" class="st0" d="M934.4,235.9c-279.4,0-558.8,0-838.2,0c-4.3,0-3.7-0.6-3.7,3.7c0,197.3,0,394.7,0,592
	c-0.3-0.2-1,0.5-1-0.5c0-0.6,0-1.1,0-1.7c0-198,0-395.9,0-594c1.3,0,2.7,0,4,0c278.9,0,557.8,0,836.7,0
	C932.9,235.4,933.9,234.9,934.4,235.9z"/>
<g id="XMLID_1_">
	<path id="XMLID_330_" class="st1" d="M703.1,242.6c0,1.5-0.1,3-0.1,4.4c0,148.8,0,297.5,0,446.3c0,1.5,0.1,3,0.1,4.4
		c-0.2,0.5-0.6,0.8-1,1.2l0,0c-1.7,0.9-3.5,0.5-5.3,0.5c-148.6,0-297.3,0-445.9,0c-1.7,0-3.6,0.7-5.2-0.6l0.1,0.2
		c-1.2-1.4-0.6-3.2-0.6-4.7c0-149.3,0-298.6,0-447.9c0-1.6-0.5-3.3,0.6-4.8l-0.1,0.1c1.5-1.1,3.2-0.6,4.8-0.6c149,0,297.9,0,446.9,0
		c1.6,0,3.3-0.4,4.8,0.5l0,0C702.5,241.7,702.9,242.1,703.1,242.6z"/>
	<path id="XMLID_329_" class="st2" d="M720.4,114.3c24.8,0,49.5,0.1,74.3,0.1c38.9,0,77.7,0,116.6,0c2,0,3.9-0.2,5.9-0.2
		c0.6-0.4,1.3-0.4,1.9,0c0.6,0.1,1.1,0.1,1.7,0.2c0.6,0.2,1,0.6,1.2,1.2c0,32.5-0.1,65-0.1,97.5c0,34,0,68,0,102
		c-1.1,3-3.6,1.8-5.5,1.8c-37,0.1-73.9,0.1-110.9,0.1c-26.8,0-53.5,0-80.3,0c-1.8,0-3.6,0.5-5.3-0.5l0,0c-1-1.7-0.5-3.5-0.5-5.3
		c0-63.9,0-127.8,0-191.7C719.5,117.6,718.5,115.7,720.4,114.3z"/>
	<path id="XMLID_328_" class="st2" d="M314.7,716.8c0,2-0.1,3.9-0.1,5.9c0,57.3,0,114.7,0,172c-0.1,0.6-0.5,1-1,1.3l0.1-0.1
		c-1.3,1.1-2.8,0.6-4.3,0.6c-57,0-113.9,0-170.9,0c-1.4,0-3,0.6-4.2-0.7l0.1,0.2c-1.2-1.2-0.7-2.8-0.7-4.2c0-57.3,0-114.6,0-171.8
		c0-1.4-0.4-3,0.5-4.3l-0.1,0.1c1.5-1,3.2-0.5,4.8-0.5c56.6,0,113.2,0,169.9,0C310.9,715.2,313.3,714.2,314.7,716.8z"/>
	<path id="XMLID_327_" class="st3" d="M229,305.4c-0.2,0.3-0.3,0.6-0.2,0.9c-0.7,1.7-2.3,1.6-3.8,1.6c-39,0-78.1,0-117.1,0
		c-0.8,0-1.6,0-2.2-0.7l0.2,0.2c-1.2-1.2-0.7-2.8-0.7-4.2c0-38.3,0-76.6,0-114.9c0-1.3-0.8-3,0.9-4c0.2,0.1,0.4,0.1,0.6-0.2
		c1.1-0.6,2.2-0.4,3.4-0.4c37.8,0,75.7,0,113.5,0c1.1,0,2.3-0.2,3.4,0.4c0.2,0.2,0.5,0.3,0.8,0.2c0.5,0.2,0.9,0.6,1.1,1.1
		c-0.1,0.3-0.1,0.6,0.1,0.8c0.6,1.1,0.4,2.2,0.4,3.4c0,37.5,0,75,0,112.5C229.4,303.2,229.6,304.4,229,305.4z"/>
	<path id="XMLID_326_" class="st3" d="M874.8,911.8c-0.2,0.2-0.3,0.4-0.1,0.6c-0.3,1-1.4,0.8-2,1.3c-20,0-40.1-0.1-60.1-0.1
		c-19.9,0-39.7,0-59.6,0c-0.6-0.1-1-0.5-1.4-1l0,0.1c-0.8-1-0.5-2.2-0.5-3.3c0-38.4,0-76.8,0-115.2c0-1.2-0.5-2.7,0.7-3.7l-0.2,0.2
		c1.2-1.3,2.8-0.7,4.2-0.7c37.9,0,75.8,0,113.7,0c1.8,0,4.1-0.9,5.2,1.6c-0.1,0.3,0,0.6,0.2,0.8c0.6,1.2,0.4,2.6,0.4,3.9
		c0,37.2,0,74.4,0,111.5C875.2,909.3,875.5,910.6,874.8,911.8z"/>
	<path id="XMLID_325_" class="st4" d="M1011.8,70.7c0.6,0.1,1.1,0.1,1.7,0.2c0.6,0.2,1,0.6,1.2,1.2c0,26.1,0,52.3,0.1,78.4
		c-0.3,0.4-0.6,0.8-0.9,1.1l0,0c-1,0.7-2.2,0.5-3.3,0.5c-24.2,0-48.5,0-72.7,0c-1.3,0-2.6,0.4-3.8-0.6l0.1,0.1
		c-0.8-0.8-0.6-1.8-0.6-2.8c0-24.9,0-49.8,0-74.7c0-0.8,0-1.6,0.5-2.4l0,0c0.3-0.4,0.7-0.7,1.1-1c0.6,0,1.3-0.1,1.9-0.1
		c2.4-0.8,4.9-0.3,7.3-0.3c20.7,0,41.5,0,62.2,0C1008.2,70.4,1010,70,1011.8,70.7z"/>
	<path id="XMLID_324_" class="st4" d="M88.9,267.2c0,0.3,0,0.5,0.1,0.8c0.4,0.7,0.4,1.6,0.4,2.4c0,24.2,0,48.4,0,72.6
		c0,1,0.2,2-0.5,2.8l0,0c-0.7,1.4-2,1.5-3.4,1.5c-25,0-50.1,0-75.1,0c-0.5,0-0.9-0.3-1.3-0.5l0.1,0.1c-0.9-1.3-0.5-2.9-0.5-4.3
		c0-23.7,0-47.5,0-71.2c0-1.8-0.8-4,1.5-5.3c25.8,0,51.7,0,77.5,0C88.2,266.3,88.6,266.7,88.9,267.2z"/>
	<path id="XMLID_323_" class="st4" d="M117.5,676.4c0,25.9,0,51.8,0,77.6c-0.8,1.7-2.3,1.5-3.8,1.5c-25.1,0-50.1,0-75.2,0
		c-0.7,0-1.3-0.1-1.8-0.6l0.1,0.1c-0.9-1-0.6-2.2-0.6-3.3c0-24.2,0-48.5,0-72.7c0-1-0.1-2,0.5-2.9c0.3-0.3,0.7-0.7,1-1
		c1-0.7,2.2-0.5,3.3-0.5c24.1,0,48.1,0,72.2,0c1.1,0,2.3-0.3,3.3,0.5l-0.1,0C116.9,675.5,117.2,675.9,117.5,676.4z"/>
	<path id="XMLID_322_" class="st4" d="M887.8,750.2c0.3,0,0.5,0,0.7-0.1c1.1-0.6,2.2-0.4,3.4-0.4c23.6,0,47.1,0,70.7,0
		c1.3,0,2.6-0.3,3.8,0.5l0,0c0.4,0.3,0.7,0.7,1,1l0,0c0.7,1,0.5,2.2,0.5,3.3c0,23.7,0,47.5,0,71.2c0,1.1,0.2,2.3-0.4,3.4
		c-0.1,0.2-0.2,0.4-0.1,0.6c-0.7,1.4-2,0.8-3.1,0.8c-24.6,0-49.2,0-73.9,0c-1,0-2,0.2-2.8-0.5l0,0c-0.8-1-0.5-2.2-0.5-3.3
		c0-24.3,0-48.5,0-72.8C887.1,752.6,886.5,751.2,887.8,750.2z"/>
	<path id="XMLID_321_" class="st3" d="M750.4,41.5c0,16.4-0.3,32.7,0.1,49.1c0.7,2.9,0.6,5.9,0,8.8c-0.2,0.3-0.3,0.5-0.2,0.9
		c-0.5,1-1.1,1.8-2.3,2c-2.7,0-5.4,0-8.1,0c-13.7-0.7-27.3-0.7-41,0c-2.8,0-5.5,0-8.3,0c-0.8-0.4-1.9-0.2-2.2-1.3
		c0.1-0.2,0.1-0.4-0.2-0.5c-0.9-4.2-0.4-8.5-0.4-12.7c-0.1-13.9-0.1-27.8,0-41.7c0-1.6-0.6-3.3,0.6-4.7l-0.1,0.1
		c0.2-0.5,0.6-0.9,1.1-1.1l-0.1,0.1c0.7-0.9,1.8-0.7,2.7-0.7c18.2,0,36.4,0,54.6,0c1,0,2-0.2,2.8,0.6l-0.1-0.1
		C749.9,40.6,750.2,41,750.4,41.5z"/>
	<path id="XMLID_320_" class="st3" d="M102.8,972.6c0-19.6,0-39.1-0.1-58.7c1.2-2.4,3.4-1.5,5.2-1.6c14.7-0.1,29.5,0,44.2-0.1
		c1.6,0,3.3,0.4,4.8-0.4c1.8,0,3.6,0.1,5.4,0.1c1.2,0.1,1.8,1,2.4,1.9l0,0c0.4,0.6,0.5,1.2,0.5,1.8c0,18.5,0,37,0,55.4
		c0,0.7-0.1,1.3-0.5,1.9l-0.2,0.2l0.1,0.3c-0.4,1.3-1.5,1-2.4,1c-18.8,0-37.5,0-56.3,0c-0.8,0-1.6,0-2.3-0.6l0.1,0.1
		C103.3,973.6,103,973.2,102.8,972.6z"/>
	<path id="XMLID_319_" class="st2" d="M139.1,110.6c0,0.8,0,1.6,0,2.5c-1,4-0.4,8.1-0.4,12.2c-0.1,13.1,0,26.2-0.1,39.4
		c0,1.6,0.5,3.3-0.5,4.8l0.1-0.1c-0.8,0.7-1.8,0.6-2.8,0.6c-18.3,0-36.7,0-55,0c-1.1,0-2.3,0.4-3.2-0.7l0.2,0.2
		c-0.9-0.7-0.7-1.8-0.7-2.7c0-18.7,0-37.3,0-56c0-0.8,0-1.6,0.5-2.3l0,0.1c0.3-0.5,0.7-0.8,1.3-1c19.5,0,39,0,58.5,0
		c0.5,0.2,0.9,0.5,1.3,0.9l0,0C138.8,108.9,138.7,109.8,139.1,110.6z"/>
	<path id="XMLID_318_" class="st5" d="M245.8,241.4c-0.7,2.1-0.5,4.2-0.5,6.3c0,148.3,0,296.5,0,444.8c0,2.1-0.1,4.3,0.6,6.3
		c-0.8-0.5-1.1-1.1-1.2-2c0-1.3,0-2.6,0-3.9c0-148.5,0-297,0-445.4C244.7,245.4,243.8,243.1,245.8,241.4z"/>
	<path id="XMLID_317_" class="st5" d="M245.7,698.7c1.5,0.1,3,0.2,4.4,0.2c150.7,0,301.3,0,452,0c-0.5,0.7-1.3,1-2.1,1
		c-1.3,0-2.6,0-3.9,0c-148.1,0-296.3,0-444.4,0C249.7,699.8,247.4,700.8,245.7,698.7z"/>
	<path id="XMLID_316_" class="st5" d="M702.2,241.4c-2.1-0.1-4.3-0.2-6.4-0.2c-147.7,0-295.5,0-443.2,0c-2.3,0-4.6,0.2-6.9,0.3
		c0.5-0.7,1.2-1.1,2.1-1.1c1.3,0,2.6,0,3.9,0c148.1,0,296.2,0,444.4,0C698.1,240.4,700.4,239.6,702.2,241.4z"/>
	<path id="XMLID_315_" class="st5" d="M719.9,316.3c2.1,0.1,4.3,0.4,6.4,0.4c62.8,0,125.5,0,188.3,0c2.5,0,5.3,0.7,7.4-1.7
		c0,1.3-0.5,2.2-1.9,2.3c-1.3,0.1-2.6,0-3.9,0c-63.5,0-127,0-190.6,0C723.6,317.3,721.5,318.1,719.9,316.3z"/>
	<path id="XMLID_314_" class="st5" d="M720.4,114.3c-1,1.7-0.8,3.5-0.8,5.3c0,64,0,127.9,0,191.9c0,1.6,0.3,3.3,0.4,4.9
		c-1.8-1.6-1-3.7-1-5.6c0-36.6,0-73.2,0-109.9c0-27.1,0-54.2,0-81.3C719,117.8,718,115.5,720.4,114.3z"/>
	<path id="XMLID_313_" class="st5" d="M314.7,716.8c-1.4-1.5-3.2-1.5-5-1.5c-2.6,0-5.3,0-7.9,0c-53.5,0-107.1,0-160.6,0
		c-2.3,0-4.6-0.1-6.9,0.4c1.6-1.8,3.7-1,5.6-1c44.4,0,88.9,0,133.3,0c12.5,0,24.9,0,37.4,0C312.2,714.7,314.4,713.9,314.7,716.8z"/>
	<path id="XMLID_312_" class="st5" d="M134.3,715.6c-0.5,1.9-0.4,3.9-0.4,5.9c0,56.1,0,112.1,0,168.2c0,2.1,0,4.3,0.6,6.3
		c-0.8-0.4-1.1-1.1-1.2-2c0-1.1,0-2.3,0-3.4c0-56.5,0-112.9,0-169.4C133.3,719.3,132.5,717.2,134.3,715.6z"/>
	<path id="XMLID_311_" class="st5" d="M134.3,895.8c1.8,0.1,3.6,0.2,5.4,0.2c56.2,0,112.4,0,168.5,0c1.8,0,3.6-0.1,5.4-0.1
		c-1.5,2-3.6,1.1-5.5,1.1c-33.7,0.1-67.3,0-101,0c-22.5,0-45,0-67.5,0C137.9,897,135.8,897.9,134.3,895.8z"/>
	<path id="XMLID_310_" class="st5" d="M874.7,791.7c-1.2-1.4-2.9-1.3-4.5-1.3c-38.2,0-76.4,0-114.7,0c-1.3,0-2.6,0.2-3.9,0.4
		c1.3-2,3.3-1.2,4.9-1.2c14.4-0.1,28.8,0,43.3,0c23.4,0,46.9,0,70.3,0C871.8,789.6,874.3,788.6,874.7,791.7z"/>
	<path id="XMLID_309_" class="st5" d="M105.7,307.2c2,0.1,3.9,0.3,5.9,0.3c37.1,0,74.2,0,111.2,0c2.1,0,4.3,0.6,6-1.2
		c-0.1,1.1-0.5,1.9-1.7,2c-1.3,0.1-2.6,0.1-3.9,0.1c-37.4,0-74.7,0-112.1,0C109.3,308.4,107.2,309.3,105.7,307.2z"/>
	<path id="XMLID_308_" class="st5" d="M106.1,184.3c-0.8,1.7-0.6,3.5-0.6,5.3c0,37.5,0,74.9,0,112.4c0,1.8,0.2,3.6,0.3,5.4
		c-1.9-1.3-1.2-3.3-1.2-5c-0.1-15.3,0-30.6,0-45.8c0-22.3,0-44.7,0-67C104.7,187.8,103.7,185.5,106.1,184.3z"/>
	<path id="XMLID_307_" class="st5" d="M751.7,790.6c-0.1,1.6-0.4,3.3-0.4,4.9c0,37.6,0,75.2,0,112.9c0,1.5,0.1,3,0.2,4.4
		c-1.5-1.1-1-2.7-1-4.1c0-38.1,0-76.1,0-114.2C750.5,793.2,750,791.5,751.7,790.6z"/>
	<path id="XMLID_306_" class="st5" d="M226.9,184.1c-13.6,0-27.3,0.1-40.9,0.1c-26.4,0-52.9,0-79.3-0.1c1.3-1.4,3.1-0.9,4.7-0.9
		c37,0,73.9,0,110.9,0C223.8,183.2,225.6,182.7,226.9,184.1z"/>
	<path id="XMLID_305_" class="st5" d="M874.8,911.8c0-39.1,0-78.2,0-117.3c0-0.7,0.1-1.3,0.1-2c1.4,1.3,0.9,3.1,0.9,4.7
		c0,36.7,0,73.3,0,110C875.7,908.8,876.2,910.5,874.8,911.8z"/>
	<path id="XMLID_304_" class="st5" d="M229,305.4c0-8-0.1-16.1-0.1-24.1c0-31.7,0.1-63.4,0.1-95.1c1.4,1.3,0.9,3.1,0.9,4.7
		c0,36.6,0,73.3,0,109.9C229.9,302.3,230.4,304.1,229,305.4z"/>
	<path id="XMLID_303_" class="st5" d="M36.7,755c1.6,0.1,3.3,0.3,4.9,0.3c23.4,0,46.9,0,70.3,0c2,0,4,0.3,5.6-1.3
		c-0.1,1.1-0.6,1.9-1.8,2c-1.3,0.1-2.6,0.1-3.9,0.1c-23.2,0-46.4,0-69.6,0C40.3,756,38.2,756.8,36.7,755z"/>
	<path id="XMLID_302_" class="st5" d="M10.1,266.1c-1.1,1.2-1.3,2.6-1.3,4.1c0,24.9,0,49.8,0.1,74.8c0,0.7,0.1,1.3,0.2,2
		c-1.5-1.1-1-2.6-1-4.1c0-24.2,0-48.4,0-72.6C8.1,268.6,7.3,266.4,10.1,266.1z"/>
	<path id="XMLID_301_" class="st5" d="M9.1,346.8c17,0.1,34.1,0.1,51.1,0.1c7.9,0,15.7,0,23.6,0c1.8,0,3.6,0.2,5.2-1.1
		c-0.2,1.1-0.6,1.9-1.8,1.9c-1.3,0.1-2.6,0.1-3.9,0.1c-22.8,0-45.7,0-68.5,0C12.8,347.8,10.6,348.6,9.1,346.8z"/>
	<path id="XMLID_300_" class="st5" d="M887.8,750.2c-0.2,1.5-0.5,2.9-0.5,4.4c0,24,0,48,0,72c0,1.1,0.2,2.3,0.2,3.4
		c-1.3-0.9-1-2.3-1-3.6c0-24.1,0-48.2,0-72.3C886.6,752.7,886.1,751.1,887.8,750.2z"/>
	<path id="XMLID_299_" class="st5" d="M933.9,71.8c-0.1,26.6-0.3,53.2,0.1,79.8c-1.5-1-1.1-2.6-1.1-4c0-23.9,0-47.8,0-71.7
		C932.9,74.5,932.5,72.9,933.9,71.8z"/>
	<path id="XMLID_298_" class="st5" d="M887.6,830c2,0.1,3.9,0.2,5.9,0.2c22.5,0,45.1,0,67.6,0c2.1,0,4.3,0.2,6.3-0.6
		c-1.1,2.2-3.2,1.3-4.8,1.3c-23.5,0.1-46.9,0-70.4,0C890.6,831,888.8,831.5,887.6,830z"/>
	<path id="XMLID_297_" class="st5" d="M933.9,151.5c4.8,0.1,9.5,0.2,14.3,0.2c21.8,0,43.7,0,65.5-0.1c-1.3,1.5-3,1-4.6,1
		c-23.6,0-47.1,0-70.7,0C936.9,152.6,935.1,153.2,933.9,151.5z"/>
	<path id="XMLID_296_" class="st5" d="M116.5,675.3c-26.3,0-52.6-0.1-78.9-0.1c1.3-1.5,3-0.9,4.6-0.9c23.2,0,46.5,0,69.7,0
		C113.5,674.2,115.3,673.7,116.5,675.3z"/>
	<path id="XMLID_295_" class="st5" d="M36.6,676.2c0,26.3,0.1,52.6,0.1,78.9c-1.5-1-1.1-2.6-1.1-4c0-23.6,0-47.1,0-70.7
		C35.7,678.9,35.3,677.3,36.6,676.2z"/>
	<path id="XMLID_294_" class="st5" d="M88.9,345.9c0-26,0.1-51.9,0.1-77.9c1.4,1.3,0.9,3.1,0.9,4.6c0,22.9,0,45.8,0,68.6
		C89.9,342.9,90.4,344.6,88.9,345.9z"/>
	<path id="XMLID_293_" class="st5" d="M967.5,829c0-26,0-51.9-0.1-77.9c1.4,1.1,1,2.7,1,4.1c0,23.2,0,46.4,0,69.7
		C968.4,826.3,968.8,827.9,967.5,829z"/>
	<path id="XMLID_292_" class="st5" d="M966.4,750.2c-26,0-51.9-0.1-77.9-0.1c1.3-1.4,3.1-0.9,4.6-0.9c22.9,0,45.8,0,68.6,0
		C963.4,749.2,965.2,748.6,966.4,750.2z"/>
	<path id="XMLID_291_" class="st5" d="M1011.8,70.7c-25,0-49.9,0-74.9,0c1.4-1.4,3.1-0.8,4.7-0.9c21.8,0,43.7,0,65.5,0
		C1008.7,69.8,1010.4,69.3,1011.8,70.7z"/>
	<path id="XMLID_290_" class="st5" d="M673.6,715.6c1.1-1.3,2.7-1,4.1-1c17.6,0,35.1,0,52.7,0c1.7,0,3.8-0.7,4.4,1.9
		c-0.3,0.2-0.6,0.3-0.8,0.5c-18.8,0.4-37.6,0.2-56.5,0.1c-1.2,0-2.3-0.2-3.3-0.8C674,716.1,673.8,715.8,673.6,715.6z"/>
	<path id="XMLID_289_" class="st5" d="M103.7,973.8c3.7,1,7.5,0.2,11.2,0.2c14.7,0,29.4,0,44,0c1.9,0,3.9,0.3,5.8-0.6
		c-0.6,1.7-2,1.5-3.3,1.5c-18.2,0-36.5,0-54.7,0C105.6,974.9,104.5,975,103.7,973.8z"/>
	<path id="XMLID_288_" class="st5" d="M77.2,169.2c1.3,0.1,2.6,0.4,3.9,0.4c18.1,0,36.1,0,54.2,0c1,0,2-0.1,2.9-0.2
		c-1.1,1.5-2.6,1.1-4.1,1.1c-17.7,0-35.4,0-53,0C79.7,170.4,78.1,170.8,77.2,169.2z"/>
	<path id="XMLID_287_" class="st5" d="M734.8,776.7c-1.1,1.4-2.7,1-4.1,1c-17.7,0-35.3,0-53,0c-1.4,0-3,0.4-4.1-1
		c0.2-0.2,0.5-0.4,0.7-0.7c1.7-0.9,3.5-0.9,5.3-0.9c16.4,0,32.8,0,49.2,0c1.8,0,3.6,0,5.3,0.9C734.3,776.3,734.5,776.5,734.8,776.7z
		"/>
	<path id="XMLID_286_" class="st5" d="M673.5,776.8c-1.3-1.2-0.9-2.7-0.9-4.1c0-17.6,0-35.3,0-52.9c0-1.4-0.4-3,0.9-4.1
		c0,0,0.1,0.1,0.1,0.1c1.7,1.9,1.5,4.2,1.5,6.5c0,16,0,32,0,48c0,2.3,0.2,4.6-1.5,6.5L673.5,776.8z"/>
	<path id="XMLID_285_" class="st5" d="M77.2,108.3c-0.9,4.2-0.2,8.5-0.2,12.7c-0.1,13.4-0.1,26.7-0.2,40.1c0,2.8-0.1,5.5,0.6,8.3
		c-1.5-0.8-1.2-2.2-1.2-3.5c0-18,0-36,0-54C76.1,110.6,75.9,109.2,77.2,108.3z"/>
	<path id="XMLID_284_" class="st5" d="M749.5,40.4c-20-0.2-40.1-0.3-60.1,0.1c0.8-1.4,2.2-1.2,3.5-1.2c17.7,0,35.4,0,53.1,0
		C747.2,39.3,748.6,39,749.5,40.4z"/>
	<path id="XMLID_283_" class="st5" d="M734.8,716.5c1.2,1.2,0.9,2.7,0.9,4.2c0,17.3,0,34.6,0,51.9c0,1.4,0.4,3-0.9,4.1
		c0,0-0.2-0.2-0.2-0.2c-1.6-1.8-1.4-3.9-1.4-6c-0.1-15.8-0.1-31.7,0-47.5C733.2,720.8,732.9,718.4,734.8,716.5L734.8,716.5z"/>
	<path id="XMLID_282_" class="st5" d="M164.8,973c0-19.7,0-39.4-0.1-59.1c1.4,1.1,1,2.7,1,4.1c0,17,0,34,0,51
		C165.8,970.3,166.2,971.9,164.8,973z"/>
	<path id="XMLID_281_" class="st5" d="M688.6,41.3c-0.1,14.9-0.1,29.9-0.2,44.8c0,4.8,0,9.5-0.1,14.3c-1.2-1-0.9-2.4-0.9-3.6
		c0-17.2,0-34.3,0-51.5C687.4,43.8,687,42.2,688.6,41.3z"/>
	<path id="XMLID_280_" class="st5" d="M138.1,169.4c0.6-1.9,0.5-3.9,0.5-5.9c0-15.1,0-30.1,0-45.2c0-1.8-0.4-3.6,0.5-5.3
		c0,17.4,0.1,34.9,0.1,52.3C139.2,166.8,139.6,168.3,138.1,169.4z"/>
	<path id="XMLID_279_" class="st5" d="M157.1,911.9c-1.7,1-3.5,0.5-5.3,0.5c-14.5,0-29.1,0-43.6,0c-1.9,0-4-0.4-5.4,1.5
		c0.2-2.5,2.1-2.1,3.7-2.1c5.4,0,10.8,0,16.2,0C134.1,911.8,145.6,911.9,157.1,911.9z"/>
	<path id="XMLID_278_" class="st5" d="M699,102.3c0.6-0.2,1.2-0.5,1.9-0.5c12.4,0,24.8,0,37.3,0c0.6,0,1.3,0.3,1.9,0.4
		C726.3,102.3,712.6,102.3,699,102.3z"/>
	<path id="XMLID_277_" class="st5" d="M750.6,99.4c0-2.9,0-5.9,0-8.8C752,93.5,752,96.4,750.6,99.4z"/>
	<path id="XMLID_276_" class="st5" d="M164.8,913.9c-0.8-0.6-1.6-1.3-2.3-1.9C163.9,911.8,164.8,912.3,164.8,913.9z"/>
	<path id="XMLID_275_" class="st5" d="M748.1,102.2c0.8-0.7,1.6-1.3,2.3-2C750.5,101.8,749.6,102.4,748.1,102.2z"/>
	<path id="XMLID_274_" class="st5" d="M139.1,110.6c-0.3-0.8-0.6-1.5-0.9-2.3C139.1,108.8,139.2,109.6,139.1,110.6z"/>
	<path id="XMLID_273_" class="st5" d="M872.6,913.8c0.7-0.4,1.3-0.9,2-1.3C874.4,913.6,873.6,913.8,872.6,913.8z"/>
	<path id="XMLID_272_" class="st5" d="M919.1,114.1c-0.6,0-1.3,0-1.9,0C917.8,113.2,918.4,113.2,919.1,114.1z"/>
	<path id="XMLID_271_" class="st5" d="M688.5,100.9c0.7,0.4,1.5,0.9,2.2,1.3C689.6,102.3,688.7,102.1,688.5,100.9z"/>
	<path id="XMLID_270_" class="st5" d="M751.5,912.7c0.5,0.3,0.9,0.6,1.4,1C752.2,913.6,751.8,913.3,751.5,912.7z"/>
	<path id="XMLID_269_" class="st5" d="M102.8,972.6c0.3,0.4,0.7,0.9,1,1.3C103.2,973.7,102.9,973.2,102.8,972.6z"/>
	<path id="XMLID_268_" class="st5" d="M703.1,242.6c-0.3-0.4-0.6-0.8-0.9-1.2C702.5,241.8,702.8,242.2,703.1,242.6z"/>
	<path id="XMLID_267_" class="st5" d="M313.6,896c0.3-0.4,0.7-0.9,1-1.3C314.5,895.3,314.2,895.8,313.6,896z"/>
	<path id="XMLID_266_" class="st5" d="M88.9,267.2c-0.4-0.4-0.8-0.8-1.2-1.1C88.3,266.2,88.7,266.6,88.9,267.2z"/>
	<path id="XMLID_265_" class="st5" d="M689.6,40.3c-0.2,0.6-0.5,0.9-1.1,1.1C688.6,40.8,689,40.5,689.6,40.3z"/>
	<path id="XMLID_264_" class="st5" d="M228.9,185.4c-0.4-0.4-0.8-0.8-1.1-1.1C228.3,184.4,228.7,184.8,228.9,185.4z"/>
	<path id="XMLID_263_" class="st5" d="M78.4,107.4c-0.4,0.3-0.9,0.6-1.3,1C77.4,107.8,77.8,107.5,78.4,107.4z"/>
	<path id="XMLID_262_" class="st5" d="M138.2,108.3c-0.4-0.3-0.9-0.6-1.3-0.9C137.5,107.5,137.9,107.8,138.2,108.3z"/>
	<path id="XMLID_261_" class="st5" d="M967.4,751.2c-0.3-0.3-0.7-0.7-1-1C966.7,750.5,967.1,750.8,967.4,751.2z"/>
	<path id="XMLID_260_" class="st5" d="M750.4,41.5c-0.3-0.4-0.7-0.8-1-1.2C750,40.5,750.3,40.9,750.4,41.5z"/>
	<path id="XMLID_259_" class="st5" d="M1013.8,151.7c0.3-0.4,0.6-0.7,0.9-1.1C1014.4,150.9,1014.1,151.3,1013.8,151.7z"/>
	<path id="XMLID_258_" class="st5" d="M1014.7,72.1c-0.4-0.4-0.8-0.8-1.2-1.2C1014.1,71,1014.5,71.4,1014.7,72.1z"/>
	<path id="XMLID_257_" class="st5" d="M922,115.5c-0.4-0.4-0.8-0.8-1.2-1.2C921.5,114.4,921.8,114.8,922,115.5z"/>
	<path id="XMLID_256_" class="st5" d="M935,70.8c-0.4,0.3-0.7,0.6-1.1,1C934.3,71.5,934.6,71.2,935,70.8z"/>
	<path id="XMLID_255_" class="st5" d="M702.2,698.9c0.3-0.4,0.6-0.8,1-1.2C702.8,698.1,702.5,698.5,702.2,698.9z"/>
	<path id="XMLID_254_" class="st5" d="M117.5,676.4c-0.3-0.4-0.7-0.8-1-1.2C117,675.4,117.3,675.8,117.5,676.4z"/>
	<path id="XMLID_253_" class="st0" d="M303.9,378.1c0-11.5,0-23,0-34.5c0-4.6,0.1-4.7,4.7-4.7c5.9-0.1,11.8,0,17.7,0
		c17.9,0.2,26.3,12.7,24.6,29c-1.5,13.7-10.5,21.9-24.2,22.5c-0.7,0-1.3,0-2,0c-5.5,0.4-6,1-6,6.6c0,5.9,0,11.8,0,17.7
		c0,3.9-0.2,4-4.2,4.5c-9.4,1.2-10.6,0.2-10.6-9.3C303.9,399.4,303.9,388.7,303.9,378.1z"/>
	<path id="XMLID_252_" class="st0" d="M325.6,566.9c0-4.5,0.1-8.9,0-13.3c-0.1-3.2,1.1-5.3,4.1-6.5c2.4-1,4.8-2.1,7.1-3.3
		c1.6-0.8,2.5-0.4,2.6,1.4c0,1,0,2,0,3c0,24.1,0,48.2,0,72.3c0,0.8,0,1.6,0,2.5c0,2-1.1,3.2-3,3c-3.7-0.5-7.9,1.7-11.1-1.8
		c-0.5-0.5-1.2-0.2-1.8,0.2c-0.9,0.5-1.7,1-2.6,1.5c-7.6,3.5-15.7,0.9-19.9-6.4c-1.8-3.2-2.8-6.6-3.4-10.2
		c-1.4-9.1-1.6-18.3,0.3-27.4c0.6-2.7,1.4-5.4,2.7-7.9c4.5-8.9,12.9-11.8,21.9-7.7C323.3,566.6,323.9,567.1,325.6,566.9z"/>
	<path id="XMLID_251_" class="st0" d="M455.6,440.7c-1.1-1.4-0.9-2.4-0.9-3.3c0-24.3,0-48.6,0-72.9c0-0.8,0-1.6,0-2.5
		c-0.1-2,0.9-3.3,2.9-3.1c3.7,0.3,7.8-1.7,11.2,1.6c1,1,2.1,0,3.1-0.6c10-5.2,19.3-1.8,22.8,8.8c4.3,13.1,4.2,26.5-0.2,39.7
		c-3.9,11.6-14.5,14.4-23.2,9.9c-0.7-0.4-1.4-0.8-2.8-0.2c0,3.9-0.1,8.2,0.1,12.4c0.1,2.9-0.9,4.6-3.5,5.7
		C461.9,437.6,458.8,439.2,455.6,440.7z"/>
	<path id="XMLID_250_" class="st0" d="M506.5,567.6c1.4-3.8,0.6-7.1,0.6-10.4c0.1-2.9-0.5-6.2,1.9-8.4c2.8-2.6,6.4-3.9,9.9-5.3
		c1.1-0.4,1.9,0.3,2,1.5c0.1,1.1,0.1,2.3,0.1,3.4c0,24,0,47.9,0,71.9c0,1,0,2,0,3c-0.1,1.8-1,2.7-2.8,2.7c-2.8,0-5.6,0-8.4,0
		c-0.3,0-0.8,0-0.9-0.1c-2.3-3.7-4.5-1-6.7,0c-6.7,3.1-14,1.2-18.4-4.7c-2.8-3.8-4-8.2-4.6-12.8c-1.4-10.2-1.5-20.3,1.4-30.2
		c2.5-8.4,8.2-13.4,15.5-13.7C499.6,564.3,503,565.4,506.5,567.6z"/>
	<path id="XMLID_249_" class="st0" d="M648,395.2c0,6.2,0,12.5,0,18.7c-0.1,5.1-0.1,5.3-5.3,5.3c-3.1,0-6.5,1.3-9.2-1.8
		c-0.7-0.8-1.8,0.2-2.6,0.7c-7.7,5.5-19.1,0.9-22.6-6.6c-3.3-6.9-3.9-13.8-1.2-20.9c2.9-7.7,8.4-11.4,16.6-11.4c2.6,0,5.2,0,7.8,0.9
		c1.7,0.6,2.4-0.3,2.6-1.9c0.6-5.1-2.9-8.7-8.4-8.4c-2.4,0.2-4.8,0.8-7.1,1.8c-3.6,1.6-4.1,1.5-5.9-1.7c-3.6-6.6-4.8-6.8,3.7-10.3
		c5.8-2.4,11.9-2.6,17.9-1.5c8.5,1.6,13.2,7.7,13.5,17.4c0.2,6.6,0,13.1,0,19.7C647.9,395.2,647.9,395.2,648,395.2z"/>
	<path id="XMLID_248_" class="st0" d="M551.3,389.2c0.1,6.8-0.9,13.4-4.1,19.5c-4.2,8.1-10.9,11.9-20,11.5
		c-9-0.4-15.1-4.8-18.5-13.1c-5-12.3-4.8-24.7,0.3-36.8c3.2-7.5,9-11.9,17.3-12.6c9.1-0.8,16,2.6,20.5,10.6
		C550.5,374.9,551.5,381.9,551.3,389.2z"/>
	<path id="XMLID_247_" class="st0" d="M559.8,601.3c-3.9,0-7.9,0-11.8,0c-2.2,0-3,1-2.7,3.1c0.6,3.7,1.7,7,5.3,8.9
		c3.7,1.8,6.9,0.8,10-1.5c3.3-2.5,3.4-2.4,6.7,0c0.4,0.3,0.8,0.6,1.2,0.9c5.4,4,5.4,5,0.2,9.5c-10.7,9.3-26.9,6.4-33.7-6.1
		c-4.4-8.1-4.9-16.9-4.1-25.8c0.5-5.4,1.9-10.6,4.5-15.5c6.8-13.1,27.5-13.9,34.8-0.2c4,7.5,5,15.5,4.7,23.8
		c-0.1,2.4-1.4,3.1-3.5,3.1C567.7,601.2,563.7,601.2,559.8,601.3C559.8,601.3,559.8,601.3,559.8,601.3z"/>
	<path id="XMLID_246_" class="st0" d="M378.4,601.3c-3.9,0-7.9,0-11.8,0c-2.1,0-3,0.8-2.8,3c0.5,3.7,1.6,7.1,5.2,8.9
		c3.7,1.8,6.9,1,10-1.5c3.3-2.6,3.4-2.5,6.7-0.1c0.5,0.4,1.1,0.8,1.6,1.1c5,3.8,5.1,4.1,0.7,8.4c-9.9,9.7-26.2,7.9-33.7-3.8
		c-2.7-4.2-4-8.9-4.6-13.9c-1-7.4-0.7-14.7,1.4-21.9c1-3.5,2.6-6.7,4.8-9.6c7.4-10.2,25.4-9.9,32.1,1.2c4.7,7.8,6,16.2,5.6,25
		c-0.1,2.3-1.2,3.2-3.4,3.2C386.3,601.2,382.4,601.2,378.4,601.3C378.4,601.2,378.4,601.3,378.4,601.3z"/>
	<path id="XMLID_245_" class="st0" d="M445,389.5c0.1,5.6-1.1,11.3-3.2,16.9c-3.5,9-10.1,13.7-19.4,13.9
		c-9.5,0.2-16.6-4.4-20.4-13.4c-3.1-7.3-3.4-14.9-2.9-22.7c0.4-5.6,1.7-11,4.5-15.9c4.5-8,11.6-11.2,20.6-10.6
		c8.4,0.6,14,5.1,17.2,12.7C443.8,376.4,445.1,382.6,445,389.5z"/>
	<path id="XMLID_244_" class="st0" d="M655,626.1c-4.5,0-8.1-0.1-11.7,0c-2.3,0.1-3.6-0.9-4.5-3c-2.1-5-4.4-9.8-6.9-15.2
		c-2.8,4.4-4.5,8.8-6.1,13.1c-1.4,3.7-3.5,5.6-7.7,5.1c-2.7-0.3-5.5-0.1-8.2-0.1c-0.5-2.4,0.7-3.8,1.5-5.4
		c3.7-7.3,7.4-14.7,11.3-21.8c1.6-3,1.4-5.4-0.1-8.3c-3.6-6.6-6.9-13.4-10.4-20.1c-0.7-1.3-1.6-2.5-1.5-4.6c4,0,8,0,12.1,0
		c2.1,0,2.7,1.5,3.4,3c1.8,4,3.6,8.1,5.4,12.3c1.9-1,2-3,2.8-4.5c1.2-2.5,2.3-5.1,3.3-7.7c0.9-2.3,2.5-3.3,4.9-3.2
		c3.4,0.1,6.9,0,10.2,0c0.7,1.8-0.4,2.7-1,3.8c-3.3,6.4-6.3,13-10.2,19.1c-2.6,4-2.5,8,0,12c4,6.4,7.2,13.3,10.7,19.9
		C653.1,622.1,653.8,623.8,655,626.1z"/>
	<path id="XMLID_243_" class="st0" d="M578.7,357.6c5.8-0.1,10.3,1.1,14.6,3.5c2.7,1.5,3,2.3,2,5.2c-0.3,0.8-0.6,1.5-0.9,2.3
		c-2.4,5.8-2.4,5.8-8.1,3.6c-2.2-0.8-4.4-1.3-6.7-1.4c-2-0.1-3.9,0.4-4.9,2.5c-1.1,2.3,0.4,3.8,1.9,5c1.5,1.2,3.3,2.1,5,3.1
		c2.8,1.6,5.9,3,8.6,4.8c7,4.7,9.6,12.6,7.3,21.3c-1.9,7.2-7.6,11.7-15.8,12.6c-6.5,0.7-12.7-0.3-18.5-3.5c-3.8-2.1-4.1-3-2.4-7
		c0.1-0.2,0.1-0.3,0.2-0.4c1.1-2.2,1.2-5.4,3.3-6.3c2-0.9,4,1.7,6.1,2.5c3.1,1.2,6.2,2,9.6,1.7c2.4-0.2,3.9-1.6,4.6-3.8
		c0.6-2-0.7-3.5-2.1-4.6c-1.2-0.9-2.4-1.7-3.7-2.4c-2.6-1.4-5.2-2.7-7.8-4.2c-8.4-4.8-11.8-12.7-9.5-22.1c1.6-6.5,7-11.2,13.9-12.2
		C576.7,357.6,578.2,357.6,578.7,357.6z"/>
	<path id="XMLID_242_" class="st0" d="M433.3,605.5c2.8,2,5.2,3.7,7.6,5.4c1.8,1.3,1.9,2.8,1,4.7c-6.3,13.9-24.9,16-34.1,3.8
		c-3.2-4.3-5.2-9.1-5.9-14.4c-1.1-7.9-1-15.7,1.3-23.4c1.1-3.8,3.1-7.2,5.6-10.3c7.7-9.7,25.9-9.5,32.7,3.1c1.8,3.3,1.7,4-1.2,6.1
		c-0.7,0.5-1.4,0.9-2.1,1.3c-4.3,2.8-4.6,4.6-9.1-0.9c-4.2-5.1-9.5-4.1-11.7,2c-3.1,8.6-3.2,17.4,0.1,26c2.5,6.4,8.3,7.1,12.5,1.5
		C431.2,608.9,432.1,607.4,433.3,605.5z"/>
	<path id="XMLID_241_" class="st6" d="M390.2,373.2c-2,0-3.4-1-4.9-1.4c-6.8-1.9-11.5,1.5-11.5,8.5c-0.1,11.2,0,22.3,0,33.5
		c0,5.1-0.1,5.1-5.2,5.5c-8.5,0.7-9,0.2-9-8.1c0-15.3,0-30.5,0-45.8c0-1.3,0-2.6,0.1-3.9c0.1-1.4,0.7-2.7,2.3-2.6
		c3.9,0.2,8.1-1.7,11.7,1.5c1.3,1.2,2.4-0.2,3.5-0.8c4.3-2.5,8.8-2.5,13.3-0.8c3.1,1.1,3.6,2.2,2.7,5.2
		C392.2,367.1,391.1,370.1,390.2,373.2z"/>
	<path id="XMLID_240_" class="st7" d="M599.7,595.6c0,8.5,0,17.1,0,25.6c0,4.5-0.3,4.9-4.7,4.8c-8.9-0.2-9.3,2-9.1-8.8
		c0.2-15.4,0-30.9-0.1-46.3c0-4.8,0.4-5.2,5.3-5.2c9.6,0.1,8.6-1.4,8.6,8.7C599.7,581.5,599.7,588.6,599.7,595.6z"/>
	<path id="XMLID_239_" class="st8" d="M385.5,491.6c0-8.4,0-16.7,0-25.1c0-4,0.2-4.1,4.1-4.2c9.2-0.3,9.7,0.2,9.7,9.5
		c0,15.1,0,30.2,0,45.2c0,5.5,0,5.5-5.3,5.6c-8.5,0.1-8.5,0.1-8.5-8.4C385.5,506.6,385.5,499.1,385.5,491.6z"/>
	<path id="XMLID_238_" class="st7" d="M453.6,595.2c0-8.4,0-16.7,0-25.1c0-4.1,0.4-4.4,4.5-4.6c8.5-0.4,9.2,0.3,9.3,8.9
		c0,15.1,0,30.2,0,45.2c0,1.3,0,2.6-0.1,3.9c-0.1,1.3-0.8,2.2-2.1,2.3c-2.8,0.1-5.6,0.2-8.3,0c-2.8-0.2-3.3-2.3-3.3-4.6
		c0-5.4,0-10.8,0-16.2C453.6,601.8,453.6,598.5,453.6,595.2z"/>
	<path id="XMLID_237_" class="st9" d="M592.3,560c-5-0.2-8.7-4.1-8.4-9c0.3-4.8,4.4-8.5,9.2-8.3c4.9,0.2,8.6,4.3,8.4,9.1
		C601.3,556.8,597.4,560.2,592.3,560z"/>
	<path id="XMLID_236_" class="st10" d="M460.3,560c-5,0-8.7-3.7-8.7-8.7c0-4.8,4-8.7,8.9-8.6c4.7,0.1,8.9,4.2,8.8,8.8
		C469.3,556.3,465.3,560,460.3,560z"/>
	<path id="XMLID_235_" class="st10" d="M392.5,439.4c4.9,0,8.9,3.9,8.8,8.7c-0.1,4.7-4.2,8.6-9,8.6c-4.9-0.1-8.7-3.9-8.7-8.8
		C383.6,443,387.4,439.4,392.5,439.4z"/>
	<path id="XMLID_234_" class="st2" d="M734.7,716.6c-0.1,20-0.1,40-0.2,60c-0.5,0.1-1,0.2-1.5,0.2c-19.8,0-39.6-0.1-59.4-0.1
		c-0.1-1.6-0.4-3.3-0.4-4.9c0-17.1,0-34.1,0-51.2c0-1.6,0.3-3.3,0.4-4.9c1.8-0.2,3.6-0.4,5.4-0.4c16.5,0,33.1,0,49.6,0
		C730.8,715.3,733,714.9,734.7,716.6z"/>
	<path id="XMLID_233_" class="st11" d="M324.1,352.8c4.7,0,8.8,0.7,10.9,4.9c2.3,4.6,2.2,9.5-0.1,14.1c-1.5,2.9-4.4,3.9-7.3,4.3
		c-9.9,1.4-9.1,0.3-9-7.4c0-3.9,0-7.8,0-11.8c0-4,0.1-4,4.1-4.2C323.2,352.9,323.9,352.9,324.1,352.8z"/>
	<path id="XMLID_232_" class="st1" d="M325.7,595.7c0,3.8,0.1,7.5,0,11.3c-0.1,3.8-2.2,6.2-5.6,7.1c-4.2,1.1-7.1-0.5-8.3-4.6
		c-1.3-4.8-1.4-9.7-1.4-14.6c0-4.1,0.1-8.2,1.2-12.2c1.1-4.2,3.2-5.9,6.8-5.6c3.8,0.4,6.9,3.2,7.3,6.8c0,0.3,0,0.7,0,1
		C325.7,588.5,325.7,592.1,325.7,595.7z"/>
	<path id="XMLID_231_" class="st12" d="M468.4,388.7c0-3.6-0.1-7.2,0-10.8c0.1-3.5,1.9-5.9,5.2-7c4.6-1.6,7.7,0,8.8,4.8
		c2,8.6,1.9,17.2,0.3,25.8c-0.9,4.9-2.7,6.4-6.7,6c-4.4-0.3-7.3-3.1-7.6-7.5c0-0.3,0-0.7,0-1C468.4,395.6,468.4,392.2,468.4,388.7
		C468.4,388.7,468.4,388.7,468.4,388.7z"/>
	<path id="XMLID_230_" class="st13" d="M507.4,595.8c0,3.8,0.2,7.5,0,11.3c-0.2,4.1-2.7,6.6-6.7,7.2c-3.6,0.6-6.5-0.9-7.2-4.3
		c-2-9.4-2.1-18.9,0-28.3c0.8-3.5,3.2-4.9,6.6-4.5c4.1,0.4,7,3.2,7.5,7.2c0,0.3,0,0.7,0,1C507.4,588.9,507.4,592.3,507.4,595.8
		C507.4,595.8,507.4,595.8,507.4,595.8z"/>
	<path id="XMLID_229_" class="st14" d="M634.2,398.9c0,6.3-3.5,9.9-9,9.2c-0.6-0.1-1.3-0.2-1.9-0.5c-3.4-1.8-3.8-5-3.9-8.3
		c-0.1-3.3,0.8-6.2,3.9-7.8c2.5-1.3,7.4-0.7,9.3,1C634.6,394.3,634.1,396.7,634.2,398.9z"/>
	<path id="XMLID_228_" class="st15" d="M537.6,390.9c0.1,2.8-0.4,7.1-2.1,11.3c-1.3,3.1-3.4,5.2-7,5.2c-3.5,0-6-1.7-7.2-5.6
		c-2.7-8.7-2.7-17.4,0.1-26.1c1-3.1,3.1-5,6.5-5.2c3.3-0.2,5.7,1.4,7.1,4.3C537.3,379.4,537.5,384.3,537.6,390.9z"/>
	<path id="XMLID_227_" class="st16" d="M553.2,589.6c-1.3,0-2.6,0-3.9,0c-4.6,0-4.9-0.4-4-4.7c0.2-1,0.5-1.9,0.9-2.8
		c1.4-3,3.2-5.4,6.9-5.5c3.1,0,5.6,2.1,7.1,5.8c0.1,0.3,0.2,0.6,0.3,0.9c1.8,5.6,1.4,6.2-4.3,6.2
		C555.2,589.6,554.2,589.6,553.2,589.6z"/>
	<path id="XMLID_226_" class="st17" d="M379.6,589.6c-4.8,0-9.2-0.1-13.6,0c-2,0-2.6-0.8-2.5-2.7c0.2-2.7,0.9-5.2,2.5-7.3
		c2.8-3.9,7.9-4.1,10.9-0.3C379,582.1,380.1,585.4,379.6,589.6z"/>
	<path id="XMLID_225_" class="st15" d="M412.8,388.4c0.2-4.1,0.2-8.6,2-12.7c1.2-2.7,2.9-4.7,6.1-5.1c3.7-0.4,6.6,1.3,7.9,5.2
		c3.1,8.8,3,17.7,0.1,26.5c-1,3.1-3.2,4.9-6.5,5.1c-3.3,0.2-5.6-1.5-7.1-4.3C412.9,398.6,412.9,393.6,412.8,388.4z"/>
</g>
</svg>
